<svg width="29" height="20" viewBox="0 0 29 20" fill="none" xmlns="http://www.w3.org/2000/svg">
<path d="M20.7143 10C22.6857 10 24.2714 8.4 24.2714 6.42857C24.2714 4.45714 22.6857 2.85714 20.7143 2.85714C18.7429 2.85714 17.1429 4.45714 17.1429 6.42857C17.1429 8.4 18.7429 10 20.7143 10ZM10 8.57143C12.3714 8.57143 14.2714 6.65714 14.2714 4.28571C14.2714 1.91429 12.3714 0 10 0C7.62857 0 5.71429 1.91429 5.71429 4.28571C5.71429 6.65714 7.62857 8.57143 10 8.57143ZM20.7143 12.8571C18.1 12.8571 12.8571 14.1714 12.8571 16.7857V20H28.5714V16.7857C28.5714 14.1714 23.3286 12.8571 20.7143 12.8571ZM10 11.4286C6.67143 11.4286 0 13.1 0 16.4286V20H10V16.7857C10 15.5714 10.4714 13.4429 13.3857 11.8286C12.1429 11.5714 10.9429 11.4286 10 11.4286Z" fill="#808080"/>
</svg>
