<svg width="250" height="183" viewBox="0 0 250 183" fill="none" xmlns="http://www.w3.org/2000/svg">
<g clip-path="url(#clip0_116_358)">
<path d="M201.725 76.917L245.874 63.3813C248.955 62.4414 250.697 59.1649 249.759 56.0764C248.821 52.9879 245.553 51.2422 242.472 52.1822L201.136 64.8584C201.35 66.0938 201.484 67.195 201.591 68.0544C201.886 70.2835 201.913 73.3182 201.725 76.8901V76.917Z" fill="white"/>
<path d="M243.597 145.777C240.409 145.374 237.462 147.576 237.007 150.772C233.98 172.714 213.888 171.398 211.316 171.156C199.234 170.539 189.429 161.837 182.089 145.267C193.528 122.063 199.475 93.38 200.332 76.8901C200.52 73.3182 200.466 70.2834 200.198 68.0543C200.091 67.1949 199.93 66.0938 199.743 64.8584C198.403 56.5329 194.278 41.3322 177.775 41.3322C173.248 41.3322 166.792 43.4807 161.702 53.7398C158.219 60.7762 156.612 69.048 157.013 77.669C157.013 77.7495 157.013 77.8301 157.013 77.9107L119.669 89.3515C120.982 78.2598 122.75 67.1681 124.759 56.9089C125.348 53.8473 123.58 50.8125 120.606 49.8457C117.633 48.9057 114.418 50.3022 113.132 53.1221C110.694 58.386 108.149 68.1349 104.935 80.4352C98.1033 106.513 87.7893 145.965 72.7068 159.42C59.7942 170.941 48.9713 171.103 48.4623 171.103C39.6753 171.103 33.4065 168.256 29.3345 162.428C20.8958 150.316 16.8238 119.431 45.4083 41.0367L46.078 39.1568C46.3995 38.0825 49.2124 28.4948 48.9713 22.7206C48.4891 10.7158 42.4614 2.60512 32.4153 0.510316C11.0909 -3.94786 0.830455 21.1361 0.428612 22.2103C-0.776917 25.2183 0.696508 28.6022 3.69694 29.8107C6.69736 30.9924 10.0728 29.5422 11.2784 26.5342C11.3587 26.3731 18.2169 9.48038 30.1114 11.978C31.9867 12.3809 36.9963 13.4283 37.3982 23.2309C37.5053 25.9703 36.0587 32.2547 35.0943 35.5043L34.5317 37.062C10.1532 103.827 5.22394 148.275 19.7974 169.169C26.1198 178.246 35.764 182.839 48.3819 182.839C49.0248 182.839 63.9466 182.946 80.4758 168.175C91.2987 158.507 99.416 139.869 105.819 120.183C105.47 141.722 108.015 162.562 117.204 173.761C122.08 179.697 128.67 182.839 136.252 182.839C148.066 182.839 158.916 177.306 168.506 166.349C170.837 163.69 173.06 160.736 175.123 157.594C183.026 171.747 194.305 181.979 210.432 182.785C211.503 182.893 212.655 182.973 213.914 182.973C226.077 182.973 245.258 176.796 248.634 152.357C249.062 149.161 246.839 146.207 243.651 145.75L243.597 145.777ZM159.719 158.641C152.432 166.94 144.556 171.156 136.252 171.156C132.099 171.156 128.911 169.626 126.232 166.349C117.419 155.606 116.133 129.771 118.463 102.028L157.871 89.9424C159.264 106.029 162.345 126.951 169.23 144.891C166.39 150.02 163.202 154.693 159.746 158.668L159.719 158.641ZM169.256 86.451L186.991 80.5695C187.393 75.9501 187.446 72.1634 187.125 69.5852C187.071 69.1555 187.018 68.7526 186.964 68.3498L168.721 74.3925C168.828 68.7795 169.953 63.4887 172.176 58.9769C173.06 57.2043 175.364 53.0684 177.775 53.0684C181.874 53.0684 186.375 54.3038 188.438 68.3498C188.491 68.7795 188.572 69.1555 188.625 69.5852C188.947 72.1365 188.893 75.9501 188.464 80.5695C187.312 93.2189 183.321 112.099 176.436 129.421C172.15 114.274 170.167 98.241 169.23 86.4779L169.256 86.451Z" fill="white"/>
<path d="M177.159 20.4109C182.782 20.4109 187.339 15.8418 187.339 10.2055C187.339 4.56914 182.782 0 177.159 0C171.537 0 166.979 4.56914 166.979 10.2055C166.979 15.8418 171.537 20.4109 177.159 20.4109Z" fill="white"/>
</g>
<defs>
<clipPath id="clip0_116_358">
<rect width="250" height="183" fill="white"/>
</clipPath>
</defs>
</svg>
